<?xml version="1.0" encoding="utf-8"?>
<!-- Generator: Adobe Illustrator 23.0.3, SVG Export Plug-In . SVG Version: 6.00 Build 0)  -->
<svg version="1.1" id="Layer_1" xmlns="http://www.w3.org/2000/svg" xmlns:xlink="http://www.w3.org/1999/xlink" x="0px" y="0px"
	 viewBox="0 0 512 512" style="enable-background:new 0 0 512 512;" xml:space="preserve">
<style type="text/css">
	.st0{fill:#18282D;}
	.st1{fill:#FF2751;}
	.st2{fill:#006BA6;}
	.st3{fill:#00458B;}
	.st4{fill:#0678D8;}
	.st5{fill:#008BFF;}
	.st6{fill:#D10F46;}
	.st7{fill:#FFFFFF;}
	.st8{fill:#E6E6E6;}
	.st9{fill:#31474C;}
</style>
<path class="st0" d="M511,255c0,141.4-114.6,256-256,256S-1,396.4-1,255S113.6-1,255-1S511,113.6,511,255z"/>
<path class="st1" d="M411,411L255,255L99,411c-86.2-86.2-86.2-225.8,0-312c86.2-86.2,225.8-86.2,312,0
	C497.1,185.2,497.1,324.8,411,411z"/>
<path class="st2" d="M411,99c43.1,43.1,64.6,99.5,64.6,156H255L411,99z"/>
<path class="st3" d="M255,255h220.6c0,56.5-21.5,112.9-64.6,156L255,255z"/>
<path class="st4" d="M411,99L411,99L255,255V34.4C311.5,34.4,367.9,55.9,411,99z"/>
<path class="st5" d="M255,34.4V255L99,99C142.1,55.9,198.5,34.4,255,34.4z"/>
<path class="st6" d="M255,255L99,411c-43.1-43.1-64.6-99.5-64.6-156H255z"/>
<path class="st0" d="M359.8,255c0,57.9-46.9,104.8-104.8,104.8S150.2,312.9,150.2,255S197.1,150.2,255,150.2S359.8,197.1,359.8,255z
	"/>
<path class="st7" d="M424.3,162.2l-181.5,77.5l18.6,33.9L424.3,162.2z"/>
<path class="st8" d="M295,255c0,22.1-17.9,40-40,40c-22.1,0-40-17.9-40-40c0-22.1,17.9-40,40-40C277.1,215,295,232.9,295,255z"/>
<g>
	<path class="st9" d="M336.4,463.2h-30.3c-5.5,0-9.9-4.4-9.9-9.9v-65.9c0-5.5,4.4-9.9,9.9-9.9h30.3c5.5,0,9.9,4.4,9.9,9.9v65.9
		C346.3,458.8,341.8,463.2,336.4,463.2z"/>
	<path class="st9" d="M270.1,463.2h-30.3c-5.5,0-9.9-4.4-9.9-9.9v-65.9c0-5.5,4.4-9.9,9.9-9.9h30.3c5.5,0,9.9,4.4,9.9,9.9v65.9
		C280,458.8,275.6,463.2,270.1,463.2z"/>
	<path class="st9" d="M203.9,463.2h-30.3c-5.5,0-9.9-4.4-9.9-9.9v-65.9c0-5.5,4.4-9.9,9.9-9.9h30.3c5.5,0,9.9,4.4,9.9,9.9v65.9
		C213.8,458.8,209.4,463.2,203.9,463.2z"/>
</g>
</svg>
