<?xml version="1.0" encoding="utf-8"?>
<!-- Generator: Adobe Illustrator 23.0.3, SVG Export Plug-In . SVG Version: 6.00 Build 0)  -->
<svg version="1.1" id="Capa_1" xmlns="http://www.w3.org/2000/svg" xmlns:xlink="http://www.w3.org/1999/xlink" x="0px" y="0px"
	 viewBox="0 0 59 59" style="enable-background:new 0 0 59 59;" xml:space="preserve">
<style type="text/css">
	.st0{fill:#00458B;}
	.st1{fill:#006BA6;}
	.st2{fill:#0678D8;}
</style>
<path class="st0" d="M9.7,41.6c-0.3,0-0.5-0.1-0.7-0.3C-2.3,30-2.3,11.6,9,0.3c0.4-0.4,1-0.4,1.4,0s0.4,1,0,1.4
	c-10.5,10.5-10.5,27.7,0,38.2c0.4,0.4,0.4,1,0,1.4C10.2,41.5,10,41.6,9.7,41.6z"/>
<path class="st0" d="M49.3,41.6c-0.3,0-0.5-0.1-0.7-0.3c-0.4-0.4-0.4-1,0-1.4c5.1-5.1,7.9-11.9,7.9-19.1s-2.8-14-7.9-19.1
	c-0.4-0.4-0.4-1,0-1.4s1-0.4,1.4,0c5.5,5.5,8.5,12.8,8.5,20.5s-3,15-8.5,20.5C49.8,41.5,49.6,41.6,49.3,41.6z"/>
<path class="st1" d="M13.9,37.4c-0.3,0-0.5-0.1-0.7-0.3c-9-9-9-23.6,0-32.5c0.4-0.4,1-0.4,1.4,0s0.4,1,0,1.4
	c-8.2,8.2-8.2,21.5,0,29.7c0.4,0.4,0.4,1,0,1.4C14.5,37.3,14.2,37.4,13.9,37.4z"/>
<path class="st1" d="M45.1,37.4c-0.3,0-0.5-0.1-0.7-0.3c-0.4-0.4-0.4-1,0-1.4c8.2-8.2,8.2-21.5,0-29.7c-0.4-0.4-0.4-1,0-1.4
	s1-0.4,1.4,0c9,9,9,23.6,0,32.5C45.6,37.3,45.3,37.4,45.1,37.4z"/>
<path class="st2" d="M18.2,33.1c-0.3,0-0.5-0.1-0.7-0.3c-3.2-3.2-5-7.5-5-12s1.8-8.8,5-12c0.4-0.4,1-0.4,1.4,0s0.4,1,0,1.4
	C13,16,13,25.6,18.9,31.4c0.4,0.4,0.4,1,0,1.4C18.7,33,18.4,33.1,18.2,33.1z"/>
<path class="st2" d="M40.8,33.1c-0.3,0-0.5-0.1-0.7-0.3c-0.4-0.4-0.4-1,0-1.4c5.8-5.8,5.8-15.4,0-21.2c-0.4-0.4-0.4-1,0-1.4
	s1-0.4,1.4,0c3.2,3.2,5,7.5,5,12s-1.8,8.8-5,12C41.3,33,41.1,33.1,40.8,33.1z"/>
<path class="st2" d="M35.5,21c0-3.3-2.7-6-6-6s-6,2.7-6,6c0,3,2.2,5.4,5,5.9c0,0,0,0.1,0,0.1v31c0,0.6,0.4,1,1,1s1-0.4,1-1V27
	c0,0,0-0.1,0-0.1C33.3,26.4,35.5,24,35.5,21z"/>
</svg>
